# This file uses centimeters as units for non-parametric coordinates.

mtllib waterfallMesh.mtl
g default
v 0.605971 7.752848 2.090811
v 0.637623 6.778335 1.665162
v 0.624334 5.657889 1.541818
v 0.726390 4.526309 1.405656
v 0.769260 3.394732 1.232734
v 0.968238 2.263154 1.005850
v 1.424304 1.131577 0.765860
v 2.389396 0.000000 0.379014
v 0.302986 7.752848 1.722337
v 0.318812 6.778335 1.291539
v 0.312167 5.657889 1.167869
v 0.363195 4.526309 1.031546
v 0.384630 3.394732 0.857213
v 0.484119 2.263154 0.630645
v 0.712152 1.131577 0.396073
v 1.194698 0.000000 0.036074
v 0.000000 7.752848 1.671605
v 0.000000 6.778335 1.240303
v -0.000000 5.657889 1.116361
v 0.000000 4.526309 0.980107
v 0.000000 3.394732 0.805083
v 0.000000 2.263154 0.576645
v -0.000000 1.131577 0.341278
v -0.000000 0.000000 -0.000000
v -0.302986 7.752848 1.725375
v -0.318812 6.778335 1.295396
v -0.312167 5.657889 1.171364
v -0.363195 4.526309 1.035021
v -0.384630 3.394732 0.860100
v -0.484119 2.263154 0.633221
v -0.712152 1.131577 0.398262
v -1.194698 0.000000 0.037500
v -0.605971 7.752848 2.095127
v -0.637623 6.778335 1.674253
v -0.624334 5.657889 1.550213
v -0.726390 4.526309 1.413793
v -0.769260 3.394732 1.239158
v -0.968238 2.263154 1.011426
v -1.424304 1.131577 0.770717
v -2.389396 0.000000 0.381748
v 0.599649 8.281280 3.098926
v 0.299825 8.498682 2.938474
v 0.000000 8.529739 2.915068
v -0.299825 8.498682 2.938474
v -0.599649 8.281280 3.098926
v 0.599649 8.195156 2.522401
v 0.299825 8.222332 2.225924
v 0.000000 8.226216 2.184351
v -0.299825 8.222332 2.227481
v -0.599649 8.195156 2.524276
v -0.571661 1.697366 0.524681
v -0.597349 0.000000 -0.004703
v -0.933269 0.565789 0.228673
v -0.478218 6.778335 1.457824
v -0.624936 7.310732 1.864027
v -0.454478 7.752848 1.883902
v -0.468250 5.657889 1.333784
v -0.625112 6.223675 1.590843
v -0.544792 4.526309 1.197398
v -0.672223 5.092099 1.488779
v -0.576945 3.394732 1.022614
v -0.744445 3.960521 1.332508
v -0.726179 2.263154 0.795571
v -0.843705 2.828943 1.127979
v -1.068228 1.131577 0.558299
v -1.143321 1.697366 0.901951
v -1.792047 0.000000 0.183639
v -1.866537 0.565789 0.588882
v 0.449737 8.405511 3.007296
v 0.599649 8.261305 2.797550
v 0.449737 8.210686 2.352920
v 0.299825 8.370006 2.564565
v 0.149912 8.529739 2.915267
v 0.149912 8.226216 2.183900
v 0.000000 8.385535 2.531430
v -0.149912 8.529739 2.915267
v -0.149912 8.226216 2.184782
v -0.299825 8.370006 2.565344
v -0.449737 8.405511 3.007296
v -0.449737 8.210686 2.354739
v -0.599649 8.261305 2.798488
v 0.599649 8.036664 2.299703
v 0.299825 8.036664 1.957818
v 0.000000 8.036664 1.910390
v -0.299825 8.036664 1.960154
v -0.599649 8.036664 2.302516
v 0.624936 7.310732 1.857078
v 0.478218 6.778335 1.451465
v 0.312468 7.310732 1.481571
v 0.454478 7.752848 1.880079
v 0.625112 6.223675 1.581724
v 0.468250 5.657889 1.327956
v 0.312556 6.223675 1.208259
v 0.672223 5.092099 1.480501
v 0.544792 4.526309 1.191691
v 0.336111 5.092099 1.106510
v 0.744445 3.960521 1.325161
v 0.576945 3.394732 1.018013
v 0.372223 3.960521 0.950342
v 0.843705 2.828943 1.122091
v 0.726179 2.263154 0.791531
v 0.421852 2.828943 0.746471
v 1.143321 1.697366 0.896630
v 1.068228 1.131577 0.554816
v 0.571661 1.697366 0.522261
v 1.866537 0.565789 0.584968
v 1.792047 0.000000 0.181550
v 0.933269 0.565789 0.226836
v 0.159406 6.778335 1.239156
v 0.000000 7.310732 1.430053
v 0.151493 7.752848 1.670575
v 0.156083 5.657889 1.115333
v 0.000000 6.223675 1.156926
v 0.181597 4.526309 0.979041
v 0.000000 5.092099 1.055044
v 0.192315 3.394732 0.804254
v 0.000000 3.960521 0.898679
v 0.242060 2.263154 0.576625
v -0.000000 2.828943 0.693641
v 0.356076 1.131577 0.341934
v 0.000000 1.697366 0.466384
v 0.597349 0.000000 -0.005426
v -0.000000 0.565789 0.179746
v -0.159406 6.778335 1.240969
v -0.312468 7.310732 1.485158
v -0.151493 7.752848 1.672240
v -0.156083 5.657889 1.116964
v -0.312556 6.223675 1.211980
v -0.181597 4.526309 0.980679
v -0.336111 5.092099 1.110001
v -0.192315 3.394732 0.805644
v -0.372223 3.960521 0.953551
v -0.242060 2.263154 0.577878
v -0.421852 2.828943 0.749175
v -0.356076 1.131577 0.342988
v 0.468702 7.310732 1.642306
v 0.468834 6.223675 1.368128
v 0.504167 5.092099 1.266609
v 0.558334 3.960521 1.110802
v 0.632779 2.828943 0.907392
v 0.857491 1.697366 0.683021
v 1.399903 0.565789 0.379869
v 0.156234 7.310732 1.428911
v 0.156278 6.223675 1.155841
v 0.168056 5.092099 1.053996
v 0.186111 3.960521 0.897679
v 0.210926 2.828943 0.693106
v 0.285830 1.697366 0.467198
v 0.466634 0.565789 0.177937
v -0.156234 7.310732 1.430723
v -0.156278 6.223675 1.157562
v -0.168056 5.092099 1.055634
v -0.186111 3.960521 0.899207
v -0.210926 2.828943 0.694419
v -0.285830 1.697366 0.468368
v -0.466634 0.565789 0.178836
v -0.468702 7.310732 1.647592
v -0.468834 6.223675 1.374409
v -0.504167 5.092099 1.272386
v -0.558334 3.960521 1.116002
v -0.632779 2.828943 0.911648
v -0.857491 1.697366 0.686851
v -1.399903 0.565789 0.382724
v 0.449737 8.323420 2.664412
v 0.149912 8.385535 2.531304
v -0.149912 8.385535 2.531745
v -0.449737 8.323420 2.665321
v 0.449737 8.036664 2.104213
v 0.149912 8.036664 1.909614
v -0.149912 8.036664 1.910936
v -0.449737 8.036664 2.106942
vt 0.001847 0.799058
vt 0.001847 0.734808
vt 0.125615 0.734808
vt 0.125615 0.799058
vt 0.001847 0.665624
vt 0.125615 0.665624
vt 0.249383 0.665624
vt 0.249383 0.734808
vt 0.249383 0.799058
vt 0.001847 0.597974
vt 0.125615 0.597974
vt 0.001847 0.530071
vt 0.125615 0.530071
vt 0.249383 0.530071
vt 0.249383 0.597974
vt 0.001847 0.463836
vt 0.125615 0.463836
vt 0.001847 0.400829
vt 0.125615 0.400829
vt 0.249383 0.400829
vt 0.249383 0.463836
vt 0.001847 0.339962
vt 0.125615 0.339962
vt 0.001847 0.279763
vt 0.125615 0.279763
vt 0.249383 0.279763
vt 0.249383 0.339962
vt 0.001847 0.221366
vt 0.125615 0.221366
vt 0.001847 0.167347
vt 0.125615 0.167347
vt 0.249383 0.167347
vt 0.249383 0.221366
vt 0.001847 0.118665
vt 0.125615 0.118665
vt 0.001847 0.075348
vt 0.125615 0.075348
vt 0.249383 0.075348
vt 0.249383 0.118665
vt 0.001847 0.037363
vt 0.125615 0.037363
vt 0.001847 0.006082
vt 0.125615 0.006082
vt 0.249383 0.006082
vt 0.249383 0.037363
vt 0.400152 0.734808
vt 0.400152 0.799058
vt 0.400152 0.665624
vt 0.496920 0.665624
vt 0.496920 0.734808
vt 0.496920 0.799058
vt 0.400152 0.597974
vt 0.400152 0.530071
vt 0.496920 0.530071
vt 0.496920 0.597974
vt 0.400152 0.463836
vt 0.400152 0.400829
vt 0.496920 0.400829
vt 0.496920 0.463836
vt 0.400152 0.339962
vt 0.400152 0.279763
vt 0.496920 0.279763
vt 0.496920 0.339962
vt 0.400152 0.221366
vt 0.400152 0.167347
vt 0.496920 0.167347
vt 0.496920 0.221366
vt 0.400152 0.118665
vt 0.400152 0.075348
vt 0.496920 0.075348
vt 0.496920 0.118665
vt 0.400152 0.037363
vt 0.400152 0.006082
vt 0.496920 0.006082
vt 0.496920 0.037363
vt 0.593688 0.734808
vt 0.593688 0.799058
vt 0.593688 0.665624
vt 0.744457 0.665624
vt 0.744457 0.734808
vt 0.744457 0.799058
vt 0.593688 0.597974
vt 0.593688 0.530071
vt 0.744457 0.530071
vt 0.744457 0.597974
vt 0.593688 0.463836
vt 0.593688 0.400829
vt 0.744457 0.400829
vt 0.744457 0.463836
vt 0.593688 0.339962
vt 0.593688 0.279763
vt 0.744457 0.279763
vt 0.744457 0.339962
vt 0.593688 0.221366
vt 0.593688 0.167347
vt 0.744457 0.167347
vt 0.744457 0.221366
vt 0.593688 0.118665
vt 0.593688 0.075348
vt 0.744457 0.075348
vt 0.744457 0.118665
vt 0.593688 0.037363
vt 0.593688 0.006082
vt 0.744457 0.006082
vt 0.744457 0.037363
vt 0.868225 0.734808
vt 0.868225 0.799058
vt 0.868225 0.665624
vt 0.991993 0.665624
vt 0.991993 0.734808
vt 0.991993 0.799058
vt 0.868225 0.597974
vt 0.868225 0.530071
vt 0.991993 0.530071
vt 0.991993 0.597974
vt 0.868225 0.463836
vt 0.868225 0.400829
vt 0.991993 0.400829
vt 0.991993 0.463836
vt 0.868225 0.339962
vt 0.868225 0.279763
vt 0.991993 0.279763
vt 0.991993 0.339962
vt 0.868225 0.221366
vt 0.868225 0.167347
vt 0.991993 0.167347
vt 0.991993 0.221366
vt 0.868225 0.118665
vt 0.868225 0.075348
vt 0.991993 0.075348
vt 0.991993 0.118665
vt 0.868225 0.037363
vt 0.868225 0.006082
vt 0.991993 0.006082
vt 0.991993 0.037363
vt 0.249383 0.994072
vt 0.125615 0.994072
vt 0.125615 0.943964
vt 0.249383 0.943964
vt 0.001847 0.994072
vt 0.001847 0.943964
vt 0.001847 0.894395
vt 0.125615 0.894395
vt 0.249383 0.894395
vt 0.496920 0.994072
vt 0.400152 0.994072
vt 0.400152 0.943964
vt 0.496920 0.943964
vt 0.400152 0.894395
vt 0.496920 0.894395
vt 0.744457 0.994072
vt 0.593688 0.994072
vt 0.593688 0.943964
vt 0.744457 0.943964
vt 0.593688 0.894395
vt 0.744457 0.894395
vt 0.991993 0.994072
vt 0.868225 0.994072
vt 0.868225 0.943964
vt 0.991993 0.943964
vt 0.868225 0.894395
vt 0.991993 0.894395
vt 0.125615 0.849344
vt 0.249383 0.849344
vt 0.001847 0.849344
vt 0.400152 0.849344
vt 0.496920 0.849344
vt 0.593688 0.849344
vt 0.744457 0.849344
vt 0.868225 0.849344
vt 0.991993 0.849344
vn 0.740150 0.394365 -0.544661
vn 0.772192 0.297776 -0.561292
vn 0.737347 0.284538 -0.612664
vn 0.711317 0.389993 -0.584751
vn 0.790713 0.187023 -0.582919
vn 0.754758 0.156011 -0.637182
vn 0.548947 0.191572 -0.813608
vn 0.533382 0.340099 -0.774491
vn 0.509300 0.468467 -0.721909
vn 0.803720 0.062766 -0.591688
vn 0.759666 0.064892 -0.647067
vn 0.801009 0.074400 -0.594011
vn 0.755959 0.085000 -0.649077
vn 0.542882 0.091716 -0.834786
vn 0.546003 0.086371 -0.833319
vn 0.780076 0.133910 -0.611187
vn 0.736742 0.131830 -0.663199
vn 0.761478 0.134212 -0.634144
vn 0.719600 0.128010 -0.682487
vn 0.515507 0.134264 -0.846301
vn 0.529463 0.129660 -0.838366
vn 0.750157 0.121164 -0.650065
vn 0.702730 0.128603 -0.699737
vn 0.731139 0.167286 -0.661401
vn 0.678109 0.176807 -0.713377
vn 0.461707 0.183424 -0.867861
vn 0.490276 0.144349 -0.859531
vn 0.687979 0.241696 -0.684301
vn 0.637104 0.234066 -0.734378
vn 0.626487 0.290697 -0.723194
vn 0.580761 0.269173 -0.768286
vn 0.379131 0.233034 -0.895519
vn 0.426082 0.219829 -0.877570
vn 0.538988 0.365810 -0.758732
vn 0.505455 0.323241 -0.800019
vn 0.420391 0.479938 -0.770020
vn 0.405520 0.417369 -0.813239
vn 0.255060 0.331338 -0.908383
vn 0.322724 0.262654 -0.909319
vn 0.320033 0.523309 -0.789764
vn 0.310230 0.474948 -0.823518
vn 0.300719 0.527119 -0.794804
vn 0.288411 0.508231 -0.811493
vn 0.206461 0.416617 -0.885327
vn 0.189997 0.380330 -0.905125
vn 0.150090 0.393446 -0.907014
vn 0.139644 0.538025 -0.831281
vn 0.157515 0.231914 -0.959898
vn -0.005498 0.243744 -0.969824
vn -0.005215 0.403876 -0.914799
vn -0.004489 0.551081 -0.834440
vn 0.157067 0.105353 -0.981952
vn 0.153061 0.092697 -0.983860
vn -0.005178 0.089992 -0.995929
vn -0.005448 0.110164 -0.993898
vn 0.149820 0.124585 -0.980833
vn 0.144903 0.139203 -0.979605
vn -0.004448 0.137010 -0.990560
vn -0.004821 0.119984 -0.992764
vn 0.135331 0.154019 -0.978756
vn 0.126380 0.182236 -0.975099
vn -0.003537 0.178608 -0.983914
vn -0.004028 0.152942 -0.988227
vn 0.116503 0.203863 -0.972043
vn 0.103573 0.203677 -0.973544
vn -0.002494 0.196015 -0.980598
vn -0.003016 0.197861 -0.980226
vn 0.087616 0.216419 -0.972361
vn 0.067519 0.266739 -0.961401
vn -0.001378 0.250535 -0.968106
vn -0.001944 0.204867 -0.978788
vn 0.046283 0.309946 -0.949627
vn 0.052809 0.327741 -0.943290
vn -0.000728 0.305006 -0.952350
vn -0.000904 0.292650 -0.956219
vn -0.160282 0.392708 -0.905588
vn -0.148122 0.537065 -0.830434
vn -0.168588 0.231493 -0.958117
vn -0.556675 0.190340 -0.808631
vn -0.539954 0.337956 -0.770867
vn -0.514036 0.466169 -0.720037
vn -0.168138 0.105286 -0.980125
vn -0.163781 0.092746 -0.982127
vn -0.550675 0.091595 -0.829679
vn -0.554070 0.086084 -0.828007
vn -0.159726 0.124626 -0.979263
vn -0.154001 0.139269 -0.978206
vn -0.522353 0.134143 -0.842112
vn -0.536789 0.129448 -0.833727
vn -0.143514 0.154152 -0.977569
vn -0.133500 0.182416 -0.974116
vn -0.467245 0.183525 -0.864870
vn -0.496548 0.144391 -0.855916
vn -0.122536 0.204096 -0.971252
vn -0.108568 0.204008 -0.972930
vn -0.383363 0.233453 -0.893606
vn -0.430916 0.220026 -0.875157
vn -0.091534 0.216882 -0.971897
vn -0.070305 0.267319 -0.961040
vn -0.257649 0.332369 -0.907275
vn -0.326246 0.263387 -0.907849
vn -0.048096 0.310537 -0.949344
vn -0.054198 0.328394 -0.942984
vn -0.207553 0.417702 -0.884560
vn -0.191664 0.381423 -0.904313
vn -0.740772 0.281764 -0.609808
vn -0.713594 0.387259 -0.583793
vn -0.758988 0.154386 -0.632537
vn -0.794084 0.184724 -0.579058
vn -0.774690 0.294687 -0.559477
vn -0.741731 0.391735 -0.544407
vn -0.764164 0.064624 -0.641776
vn -0.760203 0.084961 -0.644106
vn -0.804495 0.074326 -0.589290
vn -0.807336 0.062378 -0.586786
vn -0.740937 0.131624 -0.658549
vn -0.723696 0.127988 -0.678147
vn -0.764966 0.134298 -0.629914
vn -0.783572 0.133715 -0.606741
vn -0.706514 0.128815 -0.695877
vn -0.681486 0.177013 -0.710101
vn -0.734017 0.167484 -0.658155
vn -0.753403 0.121428 -0.646250
vn -0.640193 0.234274 -0.731620
vn -0.583680 0.269576 -0.765928
vn -0.629052 0.291085 -0.720807
vn -0.690639 0.241872 -0.681554
vn -0.508097 0.324028 -0.798025
vn -0.407545 0.418606 -0.811589
vn -0.422151 0.481189 -0.768274
vn -0.541362 0.366559 -0.756678
vn -0.311509 0.476355 -0.822221
vn -0.289223 0.509634 -0.810323
vn -0.301494 0.528644 -0.793497
vn -0.321051 0.524814 -0.788351
vn 0.398450 0.872956 -0.281399
vn 0.564904 0.807647 -0.169086
vn 0.500908 0.829856 -0.245825
vn 0.324090 0.884081 -0.336698
vn 0.590223 0.797297 -0.126311
vn 0.564424 0.810187 -0.158187
vn 0.509321 0.803644 -0.307813
vn 0.506090 0.763224 -0.401699
vn 0.322480 0.823998 -0.465870
vn -0.000259 0.936072 -0.351808
vn 0.108368 0.933072 -0.342977
vn 0.090161 0.921003 -0.378977
vn -0.000578 0.923513 -0.383567
vn 0.084616 0.866010 -0.492816
vn -0.001471 0.871890 -0.489700
vn -0.398709 0.872681 -0.281884
vn -0.108792 0.932905 -0.343297
vn -0.091181 0.920767 -0.379307
vn -0.324770 0.883636 -0.337212
vn -0.087317 0.865540 -0.493169
vn -0.324226 0.823028 -0.466371
vn -0.590381 0.797126 -0.126647
vn -0.565083 0.807436 -0.169495
vn -0.501332 0.829440 -0.246366
vn -0.564685 0.809925 -0.158598
vn -0.507101 0.762183 -0.402401
vn -0.510066 0.802895 -0.308532
vn 0.635414 0.553371 -0.538545
vn 0.430061 0.647515 -0.629104
vn 0.639926 0.592963 -0.488764
vn 0.112126 0.720476 -0.684356
vn -0.003015 0.734622 -0.678470
vn -0.117737 0.719587 -0.684349
vn -0.433186 0.645661 -0.628865
vn -0.636916 0.551348 -0.538844
vn -0.641116 0.591155 -0.489394
s 1
g pPlane1
usemtl initialShadingGroup
f 1/1/1 87/2/2 136/3/3 90/4/4
f 87/2/2 2/5/5 88/6/6 136/3/3
f 136/3/3 88/6/6 10/7/7 89/8/8
f 90/4/4 136/3/3 89/8/8 9/9/9
f 2/5/5 91/10/10 137/11/11 88/6/6
f 91/10/10 3/12/12 92/13/13 137/11/11
f 137/11/11 92/13/13 11/14/14 93/15/15
f 88/6/6 137/11/11 93/15/15 10/7/7
f 3/12/12 94/16/16 138/17/17 92/13/13
f 94/16/16 4/18/18 95/19/19 138/17/17
f 138/17/17 95/19/19 12/20/20 96/21/21
f 92/13/13 138/17/17 96/21/21 11/14/14
f 4/18/18 97/22/22 139/23/23 95/19/19
f 97/22/22 5/24/24 98/25/25 139/23/23
f 139/23/23 98/25/25 13/26/26 99/27/27
f 95/19/19 139/23/23 99/27/27 12/20/20
f 5/24/24 100/28/28 140/29/29 98/25/25
f 100/28/28 6/30/30 101/31/31 140/29/29
f 140/29/29 101/31/31 14/32/32 102/33/33
f 98/25/25 140/29/29 102/33/33 13/26/26
f 6/30/30 103/34/34 141/35/35 101/31/31
f 103/34/34 7/36/36 104/37/37 141/35/35
f 141/35/35 104/37/37 15/38/38 105/39/39
f 101/31/31 141/35/35 105/39/39 14/32/32
f 7/36/36 106/40/40 142/41/41 104/37/37
f 106/40/40 8/42/42 107/43/43 142/41/41
f 142/41/41 107/43/43 16/44/44 108/45/45
f 104/37/37 142/41/41 108/45/45 15/38/38
f 9/9/9 89/8/8 143/46/46 111/47/47
f 89/8/8 10/7/7 109/48/48 143/46/46
f 143/46/46 109/48/48 18/49/49 110/50/50
f 111/47/47 143/46/46 110/50/50 17/51/51
f 10/7/7 93/15/15 144/52/52 109/48/48
f 93/15/15 11/14/14 112/53/53 144/52/52
f 144/52/52 112/53/53 19/54/54 113/55/55
f 109/48/48 144/52/52 113/55/55 18/49/49
f 11/14/14 96/21/21 145/56/56 112/53/53
f 96/21/21 12/20/20 114/57/57 145/56/56
f 145/56/56 114/57/57 20/58/58 115/59/59
f 112/53/53 145/56/56 115/59/59 19/54/54
f 12/20/20 99/27/27 146/60/60 114/57/57
f 99/27/27 13/26/26 116/61/61 146/60/60
f 146/60/60 116/61/61 21/62/62 117/63/63
f 114/57/57 146/60/60 117/63/63 20/58/58
f 13/26/26 102/33/33 147/64/64 116/61/61
f 102/33/33 14/32/32 118/65/65 147/64/64
f 147/64/64 118/65/65 22/66/66 119/67/67
f 116/61/61 147/64/64 119/67/67 21/62/62
f 14/32/32 105/39/39 148/68/68 118/65/65
f 105/39/39 15/38/38 120/69/69 148/68/68
f 148/68/68 120/69/69 23/70/70 121/71/71
f 118/65/65 148/68/68 121/71/71 22/66/66
f 15/38/38 108/45/45 149/72/72 120/69/69
f 108/45/45 16/44/44 122/73/73 149/72/72
f 149/72/72 122/73/73 24/74/74 123/75/75
f 120/69/69 149/72/72 123/75/75 23/70/70
f 17/51/51 110/50/50 150/76/76 126/77/77
f 110/50/50 18/49/49 124/78/78 150/76/76
f 150/76/76 124/78/78 26/79/79 125/80/80
f 126/77/77 150/76/76 125/80/80 25/81/81
f 18/49/49 113/55/55 151/82/82 124/78/78
f 113/55/55 19/54/54 127/83/83 151/82/82
f 151/82/82 127/83/83 27/84/84 128/85/85
f 124/78/78 151/82/82 128/85/85 26/79/79
f 19/54/54 115/59/59 152/86/86 127/83/83
f 115/59/59 20/58/58 129/87/87 152/86/86
f 152/86/86 129/87/87 28/88/88 130/89/89
f 127/83/83 152/86/86 130/89/89 27/84/84
f 20/58/58 117/63/63 153/90/90 129/87/87
f 117/63/63 21/62/62 131/91/91 153/90/90
f 153/90/90 131/91/91 29/92/92 132/93/93
f 129/87/87 153/90/90 132/93/93 28/88/88
f 21/62/62 119/67/67 154/94/94 131/91/91
f 119/67/67 22/66/66 133/95/95 154/94/94
f 154/94/94 133/95/95 30/96/96 134/97/97
f 131/91/91 154/94/94 134/97/97 29/92/92
f 22/66/66 121/71/71 155/98/98 133/95/95
f 121/71/71 23/70/70 135/99/99 155/98/98
f 155/98/98 135/99/99 31/100/100 51/101/101
f 133/95/95 155/98/98 51/101/101 30/96/96
f 23/70/70 123/75/75 156/102/102 135/99/99
f 123/75/75 24/74/74 52/103/103 156/102/102
f 156/102/102 52/103/103 32/104/104 53/105/105
f 135/99/99 156/102/102 53/105/105 31/100/100
f 25/81/81 125/80/80 157/106/106 56/107/107
f 125/80/80 26/79/79 54/108/108 157/106/106
f 157/106/106 54/108/108 34/109/109 55/110/110
f 56/107/107 157/106/106 55/110/110 33/111/111
f 26/79/79 128/85/85 158/112/112 54/108/108
f 128/85/85 27/84/84 57/113/113 158/112/112
f 158/112/112 57/113/113 35/114/114 58/115/115
f 54/108/108 158/112/112 58/115/115 34/109/109
f 27/84/84 130/89/89 159/116/116 57/113/113
f 130/89/89 28/88/88 59/117/117 159/116/116
f 159/116/116 59/117/117 36/118/118 60/119/119
f 57/113/113 159/116/116 60/119/119 35/114/114
f 28/88/88 132/93/93 160/120/120 59/117/117
f 132/93/93 29/92/92 61/121/121 160/120/120
f 160/120/120 61/121/121 37/122/122 62/123/123
f 59/117/117 160/120/120 62/123/123 36/118/118
f 29/92/92 134/97/97 161/124/124 61/121/121
f 134/97/97 30/96/96 63/125/125 161/124/124
f 161/124/124 63/125/125 38/126/126 64/127/127
f 61/121/121 161/124/124 64/127/127 37/122/122
f 30/96/96 51/101/101 162/128/128 63/125/125
f 51/101/101 31/100/100 65/129/129 162/128/128
f 162/128/128 65/129/129 39/130/130 66/131/131
f 63/125/125 162/128/128 66/131/131 38/126/126
f 31/100/100 53/105/105 163/132/132 65/129/129
f 53/105/105 32/104/104 67/133/133 163/132/132
f 163/132/132 67/133/133 40/134/134 68/135/135
f 65/129/129 163/132/132 68/135/135 39/130/130
f 42/136/136 69/137/137 164/138/138 72/139/139
f 69/137/137 41/140/140 70/141/141 164/138/138
f 164/138/138 70/141/141 46/142/142 71/143/143
f 72/139/139 164/138/138 71/143/143 47/144/144
f 43/145/145 73/146/146 165/147/147 75/148/148
f 73/146/146 42/136/136 72/139/139 165/147/147
f 165/147/147 72/139/139 47/144/144 74/149/149
f 75/148/148 165/147/147 74/149/149 48/150/150
f 44/151/151 76/152/152 166/153/153 78/154/154
f 76/152/152 43/145/145 75/148/148 166/153/153
f 166/153/153 75/148/148 48/150/150 77/155/155
f 78/154/154 166/153/153 77/155/155 49/156/156
f 45/157/157 79/158/158 167/159/159 81/160/160
f 79/158/158 44/151/151 78/154/154 167/159/159
f 167/159/159 78/154/154 49/156/156 80/161/161
f 81/160/160 167/159/159 80/161/161 50/162/162
f 47/144/144 71/143/143 168/163/163 83/164/164
f 71/143/143 46/142/142 82/165/165 168/163/163
f 168/163/163 82/165/165 1/1/1 90/4/4
f 83/164/164 168/163/163 90/4/4 9/9/9
f 48/150/150 74/149/149 169/166/166 84/167/167
f 74/149/149 47/144/144 83/164/164 169/166/166
f 169/166/166 83/164/164 9/9/9 111/47/47
f 84/167/167 169/166/166 111/47/47 17/51/51
f 49/156/156 77/155/155 170/168/168 85/169/169
f 77/155/155 48/150/150 84/167/167 170/168/168
f 170/168/168 84/167/167 17/51/51 126/77/77
f 85/169/169 170/168/168 126/77/77 25/81/81
f 50/162/162 80/161/161 171/170/170 86/171/171
f 80/161/161 49/156/156 85/169/169 171/170/170
f 171/170/170 85/169/169 25/81/81 56/107/107
f 86/171/171 171/170/170 56/107/107 33/111/111
