# This file uses centimeters as units for non-parametric coordinates.

mtllib column2.mtl
g default
v 1597.802490 342.557693 -874.943298
v 1692.517639 342.557693 -985.776855
v 1597.802490 399.272232 -874.943298
v 1692.517639 399.272232 -985.776855
v 1470.603882 399.272232 -983.643494
v 1565.319031 399.272232 -1094.477051
v 1470.603882 342.557693 -983.643494
v 1565.319031 342.557693 -1094.477051
v 1593.787720 235.436943 -902.077423
v 1665.089722 235.436943 -985.513092
v 1593.787720 376.347748 -902.077423
v 1665.089722 376.347748 -985.513092
v 1498.032257 376.347748 -983.907257
v 1569.333984 376.347748 -1067.342926
v 1498.032257 235.436943 -983.907257
v 1569.333984 235.436943 -1067.342926
v 1597.606934 202.867630 -876.266510
v 1691.180054 202.867630 -985.763947
v 1597.606934 258.177223 -876.266510
v 1691.180054 258.177223 -985.763947
v 1471.941559 258.177223 -983.656403
v 1565.514771 258.177223 -1093.153839
v 1471.941559 202.867630 -983.656403
v 1565.514771 202.867630 -1093.153839
v 1611.590515 -689.321915 -904.665253
v 1696.201172 -689.321915 -1003.674683
v 1611.590515 215.223289 -904.665253
v 1696.201172 215.223289 -1003.674683
v 1497.961945 215.223289 -1001.768738
v 1582.572693 215.223289 -1100.778259
v 1497.961945 -689.321915 -1001.768738
v 1582.572693 -689.321915 -1100.778259
v 1466.000885 -90.901325 -946.514374
v 1609.690430 -90.901325 -823.022736
v 1466.000885 98.563282 -946.514374
v 1609.690430 98.563282 -823.022736
v 1589.492432 98.563282 -1090.203827
v 1733.181885 98.563282 -966.712189
v 1589.492432 -90.901325 -1090.203827
v 1733.181885 -90.901325 -966.712189
v 1614.389648 -7.817305 -879.940613
v 1719.599854 -7.817305 -1003.055420
v 1614.389648 75.349216 -879.940613
v 1719.599854 75.349216 -1003.055420
v 1473.096405 75.349216 -1000.685486
v 1578.306885 75.349216 -1123.800293
v 1473.096405 -7.817305 -1000.685486
v 1578.306885 -7.817305 -1123.800293
vt 0.660138 0.642464
vt 0.660138 0.574045
vt 0.686754 0.574045
vt 0.686754 0.642464
vt 0.765276 0.574045
vt 0.765276 0.642464
vt 0.791892 0.574045
vt 0.791892 0.642464
vt 0.870414 0.574045
vt 0.870414 0.642464
vt 0.660138 0.495523
vt 0.686754 0.495523
vt 0.660138 0.720986
vt 0.686754 0.720986
vt 0.390639 0.899197
vt 0.390638 0.847691
vt 0.456767 0.847691
vt 0.456768 0.899197
vt 0.515879 0.847691
vt 0.515879 0.899197
vt 0.582008 0.847691
vt 0.582008 0.899197
vt 0.641119 0.847690
vt 0.641119 0.899197
vt 0.390638 0.788580
vt 0.456767 0.788579
vt 0.390639 0.958309
vt 0.456768 0.958308
vt 0.663421 0.388435
vt 0.663595 0.320840
vt 0.689552 0.320907
vt 0.689378 0.388501
vt 0.767127 0.321107
vt 0.766953 0.388701
vt 0.793083 0.321173
vt 0.792910 0.388767
vt 0.870658 0.321373
vt 0.870484 0.388967
vt 0.663795 0.243265
vt 0.689751 0.243332
vt 0.663222 0.466010
vt 0.689179 0.466076
vt 0.005355 0.136116
vt 0.005355 0.074996
vt 0.429855 0.074996
vt 0.429855 0.136116
vt 0.500000 0.074996
vt 0.500000 0.136116
vt 0.924501 0.074996
vt 0.924501 0.136117
vt 0.994645 0.074996
vt 0.994645 0.136117
vt 0.005355 0.004851
vt 0.429855 0.004851
vt 0.005355 0.206260
vt 0.429855 0.206261
vt 0.277010 0.654040
vt 0.277010 0.565125
vt 0.365925 0.565125
vt 0.365925 0.654040
vt 0.454840 0.565125
vt 0.454840 0.654040
vt 0.543755 0.565125
vt 0.543755 0.654040
vt 0.632671 0.565125
vt 0.632671 0.654040
vt 0.277010 0.476209
vt 0.365925 0.476209
vt 0.277010 0.742955
vt 0.365925 0.742955
vt 0.659072 0.910031
vt 0.658100 0.834037
vt 0.697127 0.833537
vt 0.698099 0.909532
vt 0.784342 0.832422
vt 0.785314 0.908417
vt 0.823369 0.831923
vt 0.824341 0.907917
vt 0.910584 0.830807
vt 0.911556 0.906802
vt 0.656985 0.746821
vt 0.696011 0.746322
vt 0.660187 0.997246
vt 0.699214 0.996747
vn 0.760222 0.000000 0.649664
vn 0.760222 0.000000 0.649664
vn 0.760222 0.000000 0.649664
vn 0.760222 0.000000 0.649664
vn 0.000000 1.000000 0.000000
vn 0.000000 1.000000 0.000000
vn 0.000000 1.000000 0.000000
vn 0.000000 1.000000 0.000000
vn -0.760222 0.000000 -0.649664
vn -0.760222 0.000000 -0.649664
vn -0.760222 0.000000 -0.649664
vn -0.760222 0.000000 -0.649664
vn 0.000000 -1.000000 0.000000
vn 0.000000 -1.000000 0.000000
vn 0.000000 -1.000000 0.000000
vn 0.000000 -1.000000 0.000000
vn 0.649663 0.000000 -0.760222
vn 0.649663 0.000000 -0.760222
vn 0.649663 0.000000 -0.760222
vn 0.649663 0.000000 -0.760222
vn -0.649663 0.000000 0.760222
vn -0.649663 0.000000 0.760222
vn -0.649663 0.000000 0.760222
vn -0.649663 0.000000 0.760222
vn 0.760221 0.000000 0.649665
vn 0.760221 0.000000 0.649665
vn 0.760221 0.000000 0.649665
vn 0.760221 0.000000 0.649665
vn 0.000000 1.000000 0.000000
vn 0.000000 1.000000 0.000000
vn 0.000000 1.000000 0.000000
vn 0.000000 1.000000 0.000000
vn -0.760222 0.000000 -0.649664
vn -0.760222 0.000000 -0.649664
vn -0.760222 0.000000 -0.649664
vn -0.760222 0.000000 -0.649664
vn 0.000000 -1.000000 0.000000
vn 0.000000 -1.000000 0.000000
vn 0.000000 -1.000000 0.000000
vn 0.000000 -1.000000 0.000000
vn 0.649662 0.000000 -0.760223
vn 0.649662 0.000000 -0.760223
vn 0.649662 0.000000 -0.760223
vn 0.649662 0.000000 -0.760223
vn -0.649664 0.000000 0.760222
vn -0.649664 0.000000 0.760222
vn -0.649664 0.000000 0.760222
vn -0.649664 0.000000 0.760222
vn 0.760223 0.000000 0.649663
vn 0.760223 0.000000 0.649663
vn 0.760223 0.000000 0.649663
vn 0.760223 0.000000 0.649663
vn 0.000000 1.000000 0.000000
vn 0.000000 1.000000 0.000000
vn 0.000000 1.000000 0.000000
vn 0.000000 1.000000 0.000000
vn -0.760222 0.000000 -0.649663
vn -0.760222 0.000000 -0.649663
vn -0.760222 0.000000 -0.649663
vn -0.760222 0.000000 -0.649663
vn 0.000000 -1.000000 0.000000
vn 0.000000 -1.000000 0.000000
vn 0.000000 -1.000000 0.000000
vn 0.000000 -1.000000 0.000000
vn 0.649664 0.000000 -0.760222
vn 0.649664 0.000000 -0.760222
vn 0.649664 0.000000 -0.760222
vn 0.649664 0.000000 -0.760222
vn -0.649663 0.000000 0.760222
vn -0.649663 0.000000 0.760222
vn -0.649663 0.000000 0.760222
vn -0.649663 0.000000 0.760222
vn 0.760222 0.000000 0.649664
vn 0.760222 0.000000 0.649664
vn 0.760222 0.000000 0.649664
vn 0.760222 0.000000 0.649664
vn 0.000000 1.000000 0.000000
vn 0.000000 1.000000 0.000000
vn 0.000000 1.000000 0.000000
vn 0.000000 1.000000 0.000000
vn -0.760222 0.000000 -0.649664
vn -0.760222 0.000000 -0.649664
vn -0.760222 0.000000 -0.649664
vn -0.760222 0.000000 -0.649664
vn 0.000000 -1.000000 0.000000
vn 0.000000 -1.000000 0.000000
vn 0.000000 -1.000000 0.000000
vn 0.000000 -1.000000 0.000000
vn 0.649663 0.000000 -0.760222
vn 0.649663 0.000000 -0.760222
vn 0.649663 0.000000 -0.760222
vn 0.649663 0.000000 -0.760222
vn -0.649663 0.000000 0.760223
vn -0.649663 0.000000 0.760223
vn -0.649663 0.000000 0.760223
vn -0.649663 0.000000 0.760223
vn -0.651792 0.000000 0.758398
vn -0.651792 0.000000 0.758398
vn -0.651792 0.000000 0.758398
vn -0.651792 0.000000 0.758398
vn 0.000000 1.000000 -0.000000
vn 0.000000 1.000000 -0.000000
vn 0.000000 1.000000 -0.000000
vn 0.000000 1.000000 -0.000000
vn 0.651793 0.000000 -0.758397
vn 0.651793 0.000000 -0.758397
vn 0.651793 0.000000 -0.758397
vn 0.651793 0.000000 -0.758397
vn 0.000000 -1.000000 0.000000
vn 0.000000 -1.000000 0.000000
vn 0.000000 -1.000000 0.000000
vn 0.000000 -1.000000 0.000000
vn 0.758398 0.000000 0.651792
vn 0.758398 0.000000 0.651792
vn 0.758398 0.000000 0.651792
vn 0.758398 0.000000 0.651792
vn -0.758398 0.000000 -0.651792
vn -0.758398 0.000000 -0.651792
vn -0.758398 0.000000 -0.651792
vn -0.758398 0.000000 -0.651792
vn 0.760222 0.000000 0.649663
vn 0.760222 0.000000 0.649663
vn 0.760222 0.000000 0.649663
vn 0.760222 0.000000 0.649663
vn 0.000000 1.000000 0.000000
vn 0.000000 1.000000 0.000000
vn 0.000000 1.000000 0.000000
vn 0.000000 1.000000 0.000000
vn -0.760221 0.000000 -0.649664
vn -0.760221 0.000000 -0.649664
vn -0.760221 0.000000 -0.649664
vn -0.760221 0.000000 -0.649664
vn 0.000000 -1.000000 0.000000
vn 0.000000 -1.000000 0.000000
vn 0.000000 -1.000000 0.000000
vn 0.000000 -1.000000 0.000000
vn 0.649663 0.000000 -0.760222
vn 0.649663 0.000000 -0.760222
vn 0.649663 0.000000 -0.760222
vn 0.649663 0.000000 -0.760222
vn -0.649663 0.000000 0.760223
vn -0.649663 0.000000 0.760223
vn -0.649663 0.000000 0.760223
vn -0.649663 0.000000 0.760223
s off
g polySurface198 group1
usemtl initialShadingGroup
f 1/1/1 2/2/2 4/3/3 3/4/4
f 3/4/5 4/3/6 6/5/7 5/6/8
f 5/6/9 6/5/10 8/7/11 7/8/12
f 7/8/13 8/7/14 2/9/15 1/10/16
f 2/2/17 8/11/18 6/12/19 4/3/20
f 7/13/21 1/1/22 3/4/23 5/14/24
f 9/15/25 10/16/26 12/17/27 11/18/28
f 11/18/29 12/17/30 14/19/31 13/20/32
f 13/20/33 14/19/34 16/21/35 15/22/36
f 15/22/37 16/21/38 10/23/39 9/24/40
f 10/16/41 16/25/42 14/26/43 12/17/44
f 15/27/45 9/15/46 11/18/47 13/28/48
f 17/29/49 18/30/50 20/31/51 19/32/52
f 19/32/53 20/31/54 22/33/55 21/34/56
f 21/34/57 22/33/58 24/35/59 23/36/60
f 23/36/61 24/35/62 18/37/63 17/38/64
f 18/30/65 24/39/66 22/40/67 20/31/68
f 23/41/69 17/29/70 19/32/71 21/42/72
f 25/43/73 26/44/74 28/45/75 27/46/76
f 27/46/77 28/45/78 30/47/79 29/48/80
f 29/48/81 30/47/82 32/49/83 31/50/84
f 31/50/85 32/49/86 26/51/87 25/52/88
f 26/44/89 32/53/90 30/54/91 28/45/92
f 31/55/93 25/43/94 27/46/95 29/56/96
f 33/57/97 34/58/98 36/59/99 35/60/100
f 35/60/101 36/59/102 38/61/103 37/62/104
f 37/62/105 38/61/106 40/63/107 39/64/108
f 39/64/109 40/63/110 34/65/111 33/66/112
f 34/58/113 40/67/114 38/68/115 36/59/116
f 39/69/117 33/57/118 35/60/119 37/70/120
f 41/71/121 42/72/122 44/73/123 43/74/124
f 43/74/125 44/73/126 46/75/127 45/76/128
f 45/76/129 46/75/130 48/77/131 47/78/132
f 47/78/133 48/77/134 42/79/135 41/80/136
f 42/72/137 48/81/138 46/82/139 44/73/140
f 47/83/141 41/71/142 43/74/143 45/84/144
