# This file uses centimeters as units for non-parametric coordinates.

mtllib Frog_leaf2.mtl
g default
v 0.923880 0.023298 -0.382683
v 0.707107 0.023298 -0.675680
v 0.382684 0.023298 -0.882819
v 0.000001 0.023298 -0.955556
v -0.386266 0.023298 -0.844320
v -0.707106 0.023298 -0.579569
v -0.826298 0.023298 -0.262153
v -0.274917 0.023298 -0.000000
v -0.826299 0.023298 0.262153
v -0.707107 0.023298 0.579569
v -0.382684 0.023298 0.863231
v 0.382683 0.023298 0.882819
v 0.707107 0.023298 0.675680
v 1.000000 0.023298 0.000000
v 0.000000 0.023298 0.000000
v -0.776419 0.023298 0.171058
v -0.776419 0.023298 -0.171058
v 0.904635 0.023298 0.377359
v -0.005705 0.023298 0.950318
v 0.923880 -0.025666 -0.382683
v 0.707107 -0.025666 -0.675680
v 0.382684 -0.025666 -0.882819
v 0.000001 -0.025666 -0.955556
v -0.707106 -0.025666 -0.579569
v -0.826298 -0.025666 -0.262153
v -0.776419 -0.025666 -0.171058
v -0.274917 -0.025666 -0.000000
v -0.776419 -0.025666 0.171058
v -0.826299 -0.025666 0.262153
v -0.707107 -0.025666 0.579569
v -0.382684 -0.025666 0.863231
v 0.382683 -0.025666 0.882819
v 0.707107 -0.025666 0.675680
v 1.000000 -0.025666 0.000000
v -0.386266 -0.025666 -0.844320
v 0.904635 -0.025666 0.377359
v -0.005705 -0.025666 0.950318
vt 0.443053 0.020177
vt 0.389651 0.020177
vt 0.493288 0.562612
vt 0.333253 0.020177
vt 0.276178 0.020177
vt 0.217282 0.020177
vt 0.156333 0.020177
vt 0.106654 0.020177
vt 0.091437 0.020177
vt 0.013799 0.020177
vt 0.908563 0.020177
vt 0.893346 0.020177
vt 0.843667 0.020177
vt 0.780524 0.020177
vt 0.723834 0.020177
vt 0.666074 0.020177
vt 0.609676 0.020177
vt 0.557252 0.020177
vt 0.500223 0.020177
vt 0.443053 0.039166
vt 0.389651 0.039166
vt 0.333253 0.039166
vt 0.276178 0.039166
vt 0.156333 0.039166
vt 0.106654 0.039166
vt 0.091437 0.039166
vt 0.013799 0.039166
vt 0.908563 0.039166
vt 0.893346 0.039166
vt 0.843667 0.039166
vt 0.780524 0.039166
vt 0.666074 0.039166
vt 0.609676 0.039166
vt 0.500223 0.039166
vt 0.217282 0.039166
vt 0.557252 0.039166
vt 0.723834 0.039166
vt 0.008414 0.562235
vt 0.044196 0.364312
vt 0.051542 0.754872
vt 0.303889 0.099759
vt 0.496748 0.052409
vt 0.151001 0.199507
vt 0.980816 0.565917
vt 0.922727 0.762607
vt 0.786540 0.925385
vt 0.577877 0.959335
vt 0.492338 0.702875
vt 0.403328 0.958151
vt 0.356679 0.983285
vt 0.691730 0.092570
vt 0.195144 0.921375
vt 0.624181 0.985098
vt 0.945029 0.370420
vt 0.840468 0.204182
vt 0.986201 0.020177
vt 0.986201 0.039166
vn 0.000000 1.000000 0.000000
vn 0.000000 1.000000 0.000000
vn 0.000000 1.000000 -0.000000
vn 0.000000 1.000000 0.000000
vn 0.000000 1.000000 0.000000
vn 0.000000 1.000000 0.000000
vn 0.000000 1.000000 0.000000
vn 0.000000 1.000000 0.000000
vn 0.000000 1.000000 -0.000000
vn 0.000000 1.000000 -0.000000
vn 0.000000 1.000000 0.000000
vn 0.000000 1.000000 0.000000
vn 0.000000 1.000000 0.000000
vn 0.000000 1.000000 0.000000
vn 0.000000 1.000000 -0.000000
vn 0.000000 1.000000 -0.000000
vn 0.000000 1.000000 0.000000
vn 0.000000 1.000000 0.000000
vn 0.000000 1.000000 0.000000
vn 0.678698 0.000000 -0.734418
vn 0.917507 0.000000 -0.397720
vn 0.917507 0.000000 -0.397720
vn 0.678698 0.000000 -0.734418
vn 0.368026 0.000000 -0.929816
vn 0.368026 0.000000 -0.929816
vn -0.050003 0.000000 -0.998749
vn -0.050003 0.000000 -0.998749
vn -0.936173 0.000000 -0.351540
vn -0.797753 0.000000 -0.602984
vn -0.797753 0.000000 -0.602984
vn -0.936173 0.000000 -0.351540
vn -0.877120 0.000000 0.480271
vn -0.877120 0.000000 0.480271
vn -0.877120 0.000000 0.480271
vn -0.877120 0.000000 0.480271
vn -0.322829 0.000000 -0.946458
vn -0.322829 0.000000 -0.946458
vn -0.322829 0.000000 -0.946458
vn -0.322829 0.000000 -0.946458
vn -0.804599 0.000000 0.593819
vn -0.936173 0.000000 0.351539
vn -0.936173 0.000000 0.351539
vn -0.804599 0.000000 0.593819
vn -0.467316 0.000000 0.884091
vn -0.467316 0.000000 0.884091
vn 0.695667 0.000000 0.718365
vn 0.359526 0.000000 0.933135
vn 0.359526 0.000000 0.933135
vn 0.695667 0.000000 0.718365
vn 0.999680 0.000000 0.025312
vn 0.999680 0.000000 0.025312
vn -0.877120 0.000000 -0.480272
vn -0.877120 0.000000 -0.480272
vn -0.877120 0.000000 -0.480272
vn -0.877120 0.000000 -0.480272
vn -0.322829 0.000000 0.946458
vn -0.322829 0.000000 0.946458
vn -0.322829 0.000000 0.946458
vn -0.322829 0.000000 0.946458
vn -0.469483 0.000000 -0.882942
vn -0.469483 0.000000 -0.882942
vn 0.917507 0.000000 0.397720
vn 0.917507 0.000000 0.397720
vn -0.025584 0.000000 0.999673
vn -0.025584 0.000000 0.999673
s 1
g pCylinder18
usemtl initialShadingGroup
f 1/51/1 2/55/2 15/3/3
f 2/55/2 3/54/4 15/3/3
f 3/54/4 4/44/5 15/3/3
f 4/44/5 5/45/6 15/3/3
f 5/45/6 6/46/7 15/3/3
f 6/46/7 7/53/8 15/3/3
f 15/3/3 17/47/9 8/48/10
f 8/48/10 16/49/11 15/3/3
f 9/50/12 10/52/13 15/3/3
f 10/52/13 11/40/14 15/3/3
f 15/3/3 11/40/14 19/38/15
f 19/38/15 12/39/16 15/3/3
f 12/39/16 13/43/17 15/3/3
f 18/41/18 14/42/19 15/3/3
f 14/42/19 1/51/1 15/3/3
f 15/3/3 16/49/11 9/50/12
f 7/53/8 17/47/9 15/3/3
f 15/3/3 13/43/17 18/41/18
s 3
f 2/2/20 1/1/21 20/20/22 21/21/23
f 3/4/24 2/2/20 21/21/23 22/22/25
f 4/5/26 3/4/24 22/22/25 23/23/27
f 7/8/28 6/7/29 24/24/30 25/25/31
s off
f 17/9/32 7/8/33 25/25/34 26/26/35
f 16/11/36 8/56/37 27/57/38 28/28/39
s 3
f 10/13/40 9/12/41 29/29/42 30/30/43
f 11/14/44 10/13/40 30/30/43 31/31/45
f 13/17/46 12/16/47 32/32/48 33/33/49
f 1/1/21 14/19/50 34/34/51 20/20/22
s off
f 9/12/52 16/11/53 28/28/54 29/29/55
f 8/10/56 17/9/57 26/26/58 27/27/59
s 3
f 6/7/29 5/6/60 35/35/61 24/24/30
f 5/6/60 4/5/26 23/23/27 35/35/61
f 18/18/62 13/17/46 33/33/49 36/36/63
f 14/19/50 18/18/62 36/36/63 34/34/51
f 19/15/64 11/14/44 31/31/45 37/37/65
f 12/16/47 19/15/64 37/37/65 32/32/48
