# This file uses centimeters as units for non-parametric coordinates.

mtllib column1.mtl
g default
v 1985.352905 144.482780 428.948410
v 2147.298706 144.482780 428.948410
v 1985.352905 227.649307 428.948410
v 2147.298706 227.649307 428.948410
v 1985.352905 227.649307 243.090729
v 2147.298706 227.649307 243.090729
v 1985.352905 144.482780 243.090729
v 2147.298706 144.482780 243.090729
v 2016.406311 462.442291 393.309723
v 2116.245117 462.442291 393.309723
v 2016.406311 501.280792 393.309723
v 2116.245117 501.280792 393.309723
v 2016.406311 501.280792 278.729370
v 2116.245117 501.280792 278.729370
v 2016.406311 462.442291 278.729370
v 2116.245117 462.442291 278.729370
v 2001.207092 -537.021835 410.753311
v 2131.444519 -537.021835 410.753311
v 2001.207092 367.523369 410.753311
v 2131.444519 367.523369 410.753311
v 2001.207092 367.523369 261.285782
v 2131.444519 367.523369 261.285782
v 2001.207092 -537.021835 261.285782
v 2131.444519 -537.021835 261.285782
v 2028.746338 389.085205 379.147797
v 2103.905273 389.085205 379.147797
v 2028.746338 485.581924 379.147797
v 2103.905273 485.581924 379.147797
v 2028.746338 485.581924 292.891342
v 2103.905273 485.581924 292.891342
v 2028.746338 389.085205 292.891342
v 2103.905273 389.085205 292.891342
v 2017.008179 366.781494 392.619141
v 2115.643433 366.781494 392.619141
v 2017.008179 404.657913 392.619141
v 2115.643433 404.657913 392.619141
v 2017.008179 404.657913 279.419952
v 2115.643433 404.657913 279.419952
v 2017.008179 366.781494 279.419952
v 2115.643433 366.781494 279.419952
vt 0.635094 0.791357
vt 0.558840 0.792087
vt 0.634719 0.752198
vt 0.558466 0.752927
vt 0.633882 0.664685
vt 0.557629 0.665414
vt 0.633508 0.625525
vt 0.557254 0.626255
vt 0.632671 0.538012
vt 0.556417 0.538742
vt 0.471328 0.792924
vt 0.470953 0.753764
vt 0.722606 0.790520
vt 0.722232 0.751360
vt 0.659541 0.224668
vt 0.612529 0.224434
vt 0.612620 0.206146
vt 0.659631 0.206380
vt 0.612888 0.152193
vt 0.659900 0.152427
vt 0.612979 0.133905
vt 0.659991 0.134138
vt 0.613248 0.079952
vt 0.660259 0.080186
vt 0.558576 0.224165
vt 0.558667 0.205877
vt 0.713493 0.224936
vt 0.713584 0.206648
vt 0.891203 0.996520
vt 0.829878 0.996259
vt 0.831693 0.570330
vt 0.893019 0.570592
vt 0.831993 0.499950
vt 0.893319 0.500211
vt 0.833809 0.074021
vt 0.895134 0.074283
vt 0.834109 0.003641
vt 0.895434 0.003902
vt 0.759497 0.995959
vt 0.761313 0.570030
vt 0.961584 0.996820
vt 0.963400 0.570892
vt 0.410527 0.500619
vt 0.375142 0.499992
vt 0.375946 0.454561
vt 0.411331 0.455187
vt 0.376664 0.413951
vt 0.412050 0.414577
vt 0.377468 0.368520
vt 0.412853 0.369146
vt 0.378187 0.327910
vt 0.413572 0.328536
vt 0.334532 0.499274
vt 0.335335 0.453843
vt 0.451137 0.501337
vt 0.451941 0.455906
vt 0.663860 0.372326
vt 0.617415 0.372133
vt 0.617490 0.354297
vt 0.663935 0.354491
vt 0.617712 0.300995
vt 0.664157 0.301188
vt 0.617786 0.283159
vt 0.664231 0.283353
vt 0.618008 0.229857
vt 0.664453 0.230050
vt 0.564113 0.371911
vt 0.564187 0.354075
vt 0.717163 0.372548
vt 0.717238 0.354713
vn 0.000000 0.000000 1.000000
vn 0.000000 0.000000 1.000000
vn 0.000000 0.000000 1.000000
vn 0.000000 0.000000 1.000000
vn 0.000000 1.000000 0.000000
vn 0.000000 1.000000 0.000000
vn 0.000000 1.000000 0.000000
vn 0.000000 1.000000 0.000000
vn 0.000000 0.000000 -1.000000
vn 0.000000 0.000000 -1.000000
vn 0.000000 0.000000 -1.000000
vn 0.000000 0.000000 -1.000000
vn 0.000000 -1.000000 0.000000
vn 0.000000 -1.000000 0.000000
vn 0.000000 -1.000000 0.000000
vn 0.000000 -1.000000 0.000000
vn 1.000000 0.000000 0.000000
vn 1.000000 0.000000 0.000000
vn 1.000000 0.000000 0.000000
vn 1.000000 0.000000 0.000000
vn -1.000000 0.000000 0.000000
vn -1.000000 0.000000 0.000000
vn -1.000000 0.000000 0.000000
vn -1.000000 0.000000 0.000000
vn 0.000000 0.000000 1.000000
vn 0.000000 0.000000 1.000000
vn 0.000000 0.000000 1.000000
vn 0.000000 0.000000 1.000000
vn 0.000000 1.000000 0.000000
vn 0.000000 1.000000 0.000000
vn 0.000000 1.000000 0.000000
vn 0.000000 1.000000 0.000000
vn 0.000000 0.000000 -1.000000
vn 0.000000 0.000000 -1.000000
vn 0.000000 0.000000 -1.000000
vn 0.000000 0.000000 -1.000000
vn 0.000000 -1.000000 0.000000
vn 0.000000 -1.000000 0.000000
vn 0.000000 -1.000000 0.000000
vn 0.000000 -1.000000 0.000000
vn 1.000000 0.000000 0.000000
vn 1.000000 0.000000 0.000000
vn 1.000000 0.000000 0.000000
vn 1.000000 0.000000 0.000000
vn -1.000000 0.000000 0.000000
vn -1.000000 0.000000 0.000000
vn -1.000000 0.000000 0.000000
vn -1.000000 0.000000 0.000000
vn 0.000000 0.000000 1.000000
vn 0.000000 0.000000 1.000000
vn 0.000000 0.000000 1.000000
vn 0.000000 0.000000 1.000000
vn 0.000000 1.000000 0.000000
vn 0.000000 1.000000 0.000000
vn 0.000000 1.000000 0.000000
vn 0.000000 1.000000 0.000000
vn 0.000000 0.000000 -1.000000
vn 0.000000 0.000000 -1.000000
vn 0.000000 0.000000 -1.000000
vn 0.000000 0.000000 -1.000000
vn 0.000000 -1.000000 0.000000
vn 0.000000 -1.000000 0.000000
vn 0.000000 -1.000000 0.000000
vn 0.000000 -1.000000 0.000000
vn 1.000000 0.000000 0.000000
vn 1.000000 0.000000 0.000000
vn 1.000000 0.000000 0.000000
vn 1.000000 0.000000 0.000000
vn -1.000000 0.000000 0.000000
vn -1.000000 0.000000 0.000000
vn -1.000000 0.000000 0.000000
vn -1.000000 0.000000 0.000000
vn 0.000000 0.000000 1.000000
vn 0.000000 0.000000 1.000000
vn 0.000000 0.000000 1.000000
vn 0.000000 0.000000 1.000000
vn 0.000000 1.000000 0.000000
vn 0.000000 1.000000 0.000000
vn 0.000000 1.000000 0.000000
vn 0.000000 1.000000 0.000000
vn 0.000000 0.000000 -1.000000
vn 0.000000 0.000000 -1.000000
vn 0.000000 0.000000 -1.000000
vn 0.000000 0.000000 -1.000000
vn 0.000000 -1.000000 0.000000
vn 0.000000 -1.000000 0.000000
vn 0.000000 -1.000000 0.000000
vn 0.000000 -1.000000 0.000000
vn 1.000000 0.000000 0.000000
vn 1.000000 0.000000 0.000000
vn 1.000000 0.000000 0.000000
vn 1.000000 0.000000 0.000000
vn -1.000000 0.000000 0.000000
vn -1.000000 0.000000 0.000000
vn -1.000000 0.000000 0.000000
vn -1.000000 0.000000 0.000000
vn 0.000000 0.000000 1.000000
vn 0.000000 0.000000 1.000000
vn 0.000000 0.000000 1.000000
vn 0.000000 0.000000 1.000000
vn 0.000000 1.000000 0.000000
vn 0.000000 1.000000 0.000000
vn 0.000000 1.000000 0.000000
vn 0.000000 1.000000 0.000000
vn 0.000000 0.000000 -1.000000
vn 0.000000 0.000000 -1.000000
vn 0.000000 0.000000 -1.000000
vn 0.000000 0.000000 -1.000000
vn 0.000000 -1.000000 0.000000
vn 0.000000 -1.000000 0.000000
vn 0.000000 -1.000000 0.000000
vn 0.000000 -1.000000 0.000000
vn 1.000000 0.000000 0.000000
vn 1.000000 0.000000 0.000000
vn 1.000000 0.000000 0.000000
vn 1.000000 0.000000 0.000000
vn -1.000000 0.000000 0.000000
vn -1.000000 0.000000 0.000000
vn -1.000000 0.000000 0.000000
vn -1.000000 0.000000 0.000000
s off
g stair_pole_top2_pCube38 group1
usemtl initialShadingGroup
f 1/1/1 2/2/2 4/4/3 3/3/4
f 3/3/5 4/4/6 6/6/7 5/5/8
f 5/5/9 6/6/10 8/8/11 7/7/12
f 7/7/13 8/8/14 2/10/15 1/9/16
f 2/2/17 8/11/18 6/12/19 4/4/20
f 7/13/21 1/1/22 3/3/23 5/14/24
f 9/15/25 10/16/26 12/17/27 11/18/28
f 11/18/29 12/17/30 14/19/31 13/20/32
f 13/20/33 14/19/34 16/21/35 15/22/36
f 15/22/37 16/21/38 10/23/39 9/24/40
f 10/16/41 16/25/42 14/26/43 12/17/44
f 15/27/45 9/15/46 11/18/47 13/28/48
f 17/29/49 18/30/50 20/31/51 19/32/52
f 19/32/53 20/31/54 22/33/55 21/34/56
f 21/34/57 22/33/58 24/35/59 23/36/60
f 23/36/61 24/35/62 18/37/63 17/38/64
f 18/30/65 24/39/66 22/40/67 20/31/68
f 23/41/69 17/29/70 19/32/71 21/42/72
f 25/43/73 26/44/74 28/45/75 27/46/76
f 27/46/77 28/45/78 30/47/79 29/48/80
f 29/48/81 30/47/82 32/49/83 31/50/84
f 31/50/85 32/49/86 26/51/87 25/52/88
f 26/44/89 32/53/90 30/54/91 28/45/92
f 31/55/93 25/43/94 27/46/95 29/56/96
f 33/57/97 34/58/98 36/59/99 35/60/100
f 35/60/101 36/59/102 38/61/103 37/62/104
f 37/62/105 38/61/106 40/63/107 39/64/108
f 39/64/109 40/63/110 34/65/111 33/66/112
f 34/58/113 40/67/114 38/68/115 36/59/116
f 39/69/117 33/57/118 35/60/119 37/70/120
