# This file uses centimeters as units for non-parametric coordinates.

mtllib gem.mtl
g default
v 249.937714 536.440586 1111.646571
v 249.457839 536.214843 1111.879426
v 249.119547 536.121159 1112.315593
v 271.060767 536.440586 1120.326280
v 271.238366 536.214843 1120.829126
v 271.172280 536.121159 1121.377335
v 270.978927 566.109570 1120.212944
v 271.277656 566.073840 1120.702543
v 271.247004 566.058817 1121.281368
v 250.075429 566.109570 1111.623271
v 249.518741 566.073840 1111.761538
v 249.134098 566.058817 1112.194285
v 246.231967 536.440586 1120.664844
v 245.910468 536.214843 1120.511734
v 245.941810 536.121159 1120.049109
v 267.994317 536.121159 1129.110822
v 267.691099 536.214843 1129.461757
v 267.355041 536.440586 1129.344422
v 268.120250 566.058817 1128.889904
v 267.741642 566.073840 1129.308204
v 267.271360 566.109570 1129.235749
v 246.368035 566.109570 1120.646126
v 245.982710 566.073840 1120.367085
v 246.007295 566.058817 1119.803694
v 260.865071 535.134349 1114.679321
v 261.157963 535.134349 1114.799589
v 261.262704 566.970172 1114.544944
v 260.969916 566.970172 1114.424633
v 257.128543 535.134349 1123.772879
v 257.421271 535.134349 1123.893337
v 257.520395 566.970172 1123.651869
v 257.227658 566.970172 1123.531536
v 257.901670 518.738619 1121.891541
v 258.194364 518.738619 1122.011770
v 257.703285 518.423412 1122.373924
v 257.996134 518.423412 1122.494454
v 258.343695 519.499123 1121.648446
v 258.051027 519.499123 1121.528572
v 258.119762 584.682773 1122.193587
v 257.826861 584.682773 1122.073444
v 257.923921 585.012272 1122.670285
v 257.630873 585.012272 1122.550081
v 257.971252 583.887271 1121.722286
v 258.263902 583.887271 1121.842411
v 254.605649 519.499123 1129.912860
v 254.898408 519.499123 1130.033062
v 254.614668 518.738619 1129.890230
v 254.907574 518.738619 1130.010493
v 255.057677 518.423412 1129.645874
v 254.764729 518.423412 1129.525142
v 254.850231 584.682773 1130.150053
v 254.557543 584.682773 1130.029578
v 254.707009 585.012272 1129.665590
v 254.999850 585.012272 1129.785880
v 254.834323 583.887271 1130.188703
v 254.541677 583.887271 1130.068698
v 241.294852 551.186007 1109.093189
v 241.284997 551.463684 1109.089117
v 240.662439 551.197879 1109.317604
v 240.662742 551.475332 1109.317600
v 240.263688 551.478032 1109.752430
v 240.261382 551.200749 1109.751682
v 279.294019 551.197879 1125.191413
v 279.293542 551.475332 1125.191733
v 279.273782 551.200749 1125.782850
v 279.271516 551.478032 1125.781354
v 279.011541 551.463684 1124.591498
v 279.001730 551.186007 1124.587529
v 237.109448 551.200749 1117.422213
v 237.111932 551.478032 1117.422400
v 237.141374 551.197879 1117.886231
v 237.141738 551.475332 1117.886080
v 237.604571 551.463684 1118.046067
v 237.616315 551.186007 1118.044969
v 275.772846 551.197879 1133.760329
v 275.772577 551.475332 1133.760197
v 276.119717 551.478032 1133.451220
v 276.121966 551.200749 1133.452967
v 275.323366 551.186007 1133.539358
v 275.331301 551.463684 1133.548493
v 262.742273 551.453725 1110.111406
v 262.742273 551.176217 1110.111406
v 263.035044 551.176217 1110.231969
v 263.035044 551.453725 1110.231969
v 258.938613 551.176217 1119.368085
v 258.938613 551.453725 1119.368085
v 259.231307 551.453725 1119.488314
v 259.231307 551.176217 1119.488314
vt 0.769523 0.520573
vt 0.772712 0.520576
vt 0.772411 0.690359
vt 0.769299 0.690352
vt 0.773326 0.205722
vt 0.770166 0.205717
vt 0.770480 0.022196
vt 0.773581 0.022204
vt 0.283592 0.217339
vt 0.280268 0.217301
vt 0.282401 0.052655
vt 0.285572 0.052470
vt 0.277116 0.535125
vt 0.280448 0.535198
vt 0.277245 0.711075
vt 0.274215 0.711155
vt 0.769391 0.698875
vt 0.772278 0.698900
vt 0.773246 0.705437
vt 0.209669 0.009522
vt 0.289084 0.040891
vt 0.278949 0.041749
vt 0.773493 0.013460
vt 0.770609 0.013432
vt 0.769606 0.006868
vt 0.347464 0.755275
vt 0.271130 0.723561
vt 0.280267 0.722693
vt 0.281929 0.045623
vt 0.285982 0.044864
vt 0.277452 0.718639
vt 0.274133 0.719458
vt 0.404819 0.533628
vt 0.410716 0.534775
vt 0.399802 0.534101
vt 0.159982 0.224321
vt 0.402960 0.227672
vt 0.158442 0.530446
vt 0.654387 0.510938
vt 0.887865 0.511366
vt 0.886353 0.209952
vt 0.657138 0.209529
vt 0.151252 0.220543
vt 0.072050 0.193392
vt 0.896709 0.518134
vt 0.411680 0.224164
vt 0.488044 0.562988
vt 0.646447 0.206259
vt 0.147571 0.530670
vt 0.649793 0.514290
vt 0.892447 0.514732
vt 0.892000 0.209258
vt 0.651492 0.208815
vt 0.155949 0.222350
vt 0.406995 0.225825
vt 0.153453 0.529765
vt 0.564598 0.359854
vt 0.564506 0.357110
vt 0.769943 0.359400
vt 0.769938 0.362066
vt 0.557808 0.359790
vt 0.557864 0.356740
vt 0.551807 0.360411
vt 0.008996 0.380361
vt 0.086537 0.376721
vt 0.086520 0.378669
vt 0.985069 0.360637
vt 0.985030 0.357587
vt 0.990951 0.356708
vt 0.551807 0.381534
vt 0.978280 0.360674
vt 0.978384 0.357930
vt 0.474224 0.383107
vt 0.474250 0.381162
vt 0.772930 0.362071
vt 0.772938 0.359404
vt 0.090601 0.376955
vt 0.090548 0.378371
vt 0.094762 0.376300
vt 0.094632 0.378881
vt 0.278926 0.377726
vt 0.278920 0.380566
vt 0.470181 0.381343
vt 0.470201 0.382759
vt 0.466106 0.383217
vt 0.466027 0.380627
vt 0.281749 0.380596
vt 0.281760 0.377760
vt 0.551757 0.385605
vt 0.897060 0.206717
vt 0.069968 0.558137
vt 0.551945 0.355837
vt 0.491065 0.197618
vt 0.991075 0.361284
vt 0.008925 0.376301
vt 0.645521 0.517677
vt 0.345708 0.757939
vt 0.774452 0.006825
vt 0.211371 0.006825
vt 0.768468 0.705479
vt 0.278124 0.724979
vt 0.199817 0.748508
vt 0.768468 0.705479
vt 0.281024 0.039402
vt 0.284675 0.044503
vt 0.362104 0.015647
vn 0.145439 -0.271129 -0.951492
vn 0.565573 -0.271119 -0.778859
vn 0.515338 -0.452657 -0.727687
vn 0.145151 -0.452653 -0.879793
vn 0.567705 0.267925 -0.778413
vn 0.143633 0.267930 -0.952671
vn 0.137475 0.448945 -0.882921
vn 0.522981 0.448893 -0.724559
vn -0.558471 0.255087 0.789329
vn -0.157862 0.255093 0.953943
vn -0.354361 0.312910 0.881201
vn -0.367634 0.312916 0.875745
vn -0.155823 -0.251833 0.955144
vn -0.560768 -0.251834 0.788745
vn -0.356848 -0.304218 0.883239
vn -0.367336 -0.304156 0.878950
vn 0.196614 -0.855936 -0.478243
vn 0.196614 -0.855936 -0.478243
vn 0.196614 -0.855936 -0.478243
vn 0.196614 -0.855936 -0.478243
vn 0.604714 -0.506441 -0.614685
vn 0.002379 -0.506446 -0.862268
vn 0.000000 -1.000000 0.000000
vn 0.000000 -1.000000 0.000000
vn 0.000000 -1.000000 0.000000
vn 0.000000 -1.000000 0.000000
vn 0.204413 0.842536 -0.498345
vn 0.204413 0.842536 -0.498345
vn 0.204413 0.842536 -0.498345
vn 0.204413 0.842536 -0.498345
vn -0.025553 0.503662 -0.863523
vn 0.625222 0.503529 -0.596286
vn 0.000000 1.000000 0.000000
vn 0.000000 1.000000 0.000000
vn 0.000000 1.000000 0.000000
vn 0.000000 1.000000 0.000000
vn -0.646211 0.070062 0.759936
vn -0.075030 0.070082 0.994716
vn -0.237212 -0.781320 0.577295
vn -0.237212 -0.781320 0.577294
vn -0.237212 -0.781320 0.577294
vn -0.237212 -0.781320 0.577294
vn -0.020633 -0.040640 0.998961
vn -0.687844 -0.040462 0.724730
vn -0.244181 0.766773 0.593662
vn -0.244181 0.766773 0.593662
vn -0.244181 0.766773 0.593662
vn -0.244181 0.766773 0.593662
vn 0.780561 0.524297 0.340348
vn 0.659599 0.428288 0.617656
vn 0.642614 0.461164 0.611861
vn 0.779424 0.528255 0.336816
vn -0.565095 -0.213927 0.796808
vn -0.188768 0.063293 0.979980
vn -0.153720 0.214713 0.964504
vn -0.568848 0.214711 0.793922
vn -0.158428 -0.213912 0.963920
vn 0.112904 -0.241846 -0.963724
vn 0.597312 -0.241830 -0.764680
vn 0.596488 0.243160 -0.764902
vn 0.113660 0.243169 -0.963302
vn -0.765123 -0.555837 -0.325009
vn -0.780090 -0.549291 -0.299564
vn -0.786300 -0.537250 -0.305115
vn -0.769199 -0.539447 -0.342534
vn 0.787806 -0.539448 0.297251
vn 0.773647 -0.537248 0.335908
vn 0.765330 -0.549284 0.335496
vn 0.772582 -0.555843 0.306847
vn 0.787414 0.530549 0.313842
vn 0.791820 0.531848 0.300263
vn -0.774164 0.531847 -0.343232
vn -0.791047 0.528256 -0.308530
vn -0.794336 0.524297 -0.306826
vn -0.780576 0.530547 -0.330485
vn -0.597862 -0.539192 -0.593154
vn -0.546405 -0.598685 -0.585678
vn -0.152655 -0.432722 -0.888509
vn 0.800300 -0.598730 -0.032268
vn 0.842183 -0.539190 -0.001275
vn 0.733208 -0.432612 -0.524645
vn 0.765316 0.404683 -0.500522
vn 0.817414 0.576038 0.003852
vn 0.840504 0.541404 0.020849
vn -0.583979 0.575983 -0.572025
vn -0.612375 0.541389 -0.576103
vn -0.192407 0.404797 -0.893935
vn -0.534196 0.024004 0.845020
vn -0.885633 -0.463295 0.031821
vn -0.898921 -0.437692 0.019164
vn -0.214454 0.024045 0.976438
vn 0.625446 -0.437338 0.646183
vn 0.607101 -0.463069 0.645752
vn -0.554846 0.063380 0.829535
vn -0.903369 0.428169 -0.024415
vn -0.887216 0.461061 -0.016459
vn 0.082127 -0.204448 -0.975426
vn 0.081760 0.198857 -0.976612
vn 0.114098 0.192832 -0.974576
vn 0.117642 -0.197700 -0.973178
vn -0.304915 -0.324180 -0.895508
vn -0.288649 0.318060 -0.903061
vn -0.652046 0.485581 -0.582277
vn -0.645673 -0.473627 -0.598985
vn -0.788247 -0.511841 -0.341594
vn -0.782348 0.523003 -0.338232
vn -0.800741 -0.512990 -0.309282
vn -0.794221 0.524284 -0.307147
vn 0.880286 -0.473599 0.028303
vn 0.873097 0.485533 0.044262
vn 0.794114 0.523017 0.309574
vn 0.800701 -0.511819 0.311317
vn 0.840137 0.318032 -0.439346
vn 0.846233 -0.323958 -0.423015
vn 0.627399 -0.204419 -0.751388
vn 0.628526 0.198851 -0.751940
vn 0.780702 0.524296 0.340026
vn 0.786853 -0.512978 0.343096
vn 0.600605 -0.197690 -0.774721
vn 0.604113 0.192829 -0.773217
vn -0.869093 -0.492143 0.049722
vn -0.857897 0.513821 -0.000930
vn -0.455291 0.119675 0.882263
vn -0.353348 -0.041425 0.934574
vn -0.136831 0.175144 0.974988
vn -0.138944 -0.168271 0.975899
vn -0.129687 0.191555 0.972876
vn -0.126168 -0.187344 0.974158
vn -0.405884 -0.041373 0.912987
vn -0.296538 0.119628 0.947499
vn -0.587360 -0.168284 0.791637
vn -0.588220 0.175151 0.789506
vn 0.611019 0.513911 0.602122
vn 0.582757 -0.492086 0.646719
vn -0.595231 -0.187348 0.781410
vn -0.591827 0.191559 0.782973
s 1
g polySurface45 group1
usemtl initialShadingGroup
f 25/1/1 26/2/2 37/3/3 38/4/4
f 27/5/5 28/6/6 43/7/7 44/8/8
s 3
f 30/9/9 29/10/10 45/11/11 46/12/12
f 32/13/13 31/14/14 55/15/15 56/16/16
s off
f 33/17/17 34/18/18 36/19/19 35/100/20
s 1
f 34/18/21 33/17/22 38/4/4 37/3/3
s off
f 35/20/23 36/99/24 49/104/25 50/22/26
f 39/23/27 40/24/28 42/25/29 41/98/30
s 1
f 40/24/31 39/23/32 44/8/8 43/7/7
s off
f 41/26/33 42/97/34 53/101/35 54/28/36
s 3
f 46/12/12 45/11/11 47/29/37 48/105/38
s off
f 48/105/39 47/29/40 50/22/41 49/104/42
s 3
f 51/31/43 52/32/44 56/16/16 55/15/15
s off
f 52/32/45 51/31/46 54/28/47 53/101/48
s 5
f 54/28/49 51/31/50 20/33/51 19/34/52
s 3
f 51/31/43 55/15/15 21/35/53 20/33/54
f 45/11/11 29/10/10 13/36/55
f 18/37/56 30/9/9 46/12/12
f 55/15/15 31/14/14 21/35/53
f 22/38/57 32/13/13 56/16/16
s 1
f 38/4/4 1/39/58 25/1/1
f 4/40/59 37/3/3 26/2/2
f 44/8/8 7/41/60 27/5/5
f 10/42/61 43/7/7 28/6/6
s 6
f 35/20/62 50/22/63 15/43/64 3/44/65
s 5
f 6/93/66 16/46/67 49/21/68 36/106/69
f 41/26/70 54/28/49 19/34/52 9/47/71
s 6
f 12/91/72 24/49/73 53/27/74 42/102/75
f 3/96/65 2/50/76 33/17/77 35/103/62
s 1
f 2/50/78 1/39/58 38/4/4 33/17/22
s 5
f 36/19/69 34/18/79 5/51/80 6/45/66
s 1
f 34/18/21 37/3/3 4/40/59 5/51/81
f 44/8/8 39/23/32 8/52/82 7/41/60
s 5
f 39/23/83 41/98/70 9/90/71 8/52/84
s 6
f 42/25/75 40/24/85 11/53/86 12/48/72
s 1
f 40/24/31 43/7/7 10/42/61 11/53/87
s 3
f 13/36/55 14/54/88 47/29/37 45/11/11
s 6
f 14/54/89 15/43/64 50/22/63 47/29/90
s 3
f 46/12/12 48/30/38 17/55/91 18/37/56
s 5
f 48/30/92 49/21/68 16/46/67 17/55/93
s 3
f 56/16/16 52/32/44 23/56/94 22/38/57
s 6
f 52/32/95 53/27/74 24/49/73 23/56/96
s 1
f 57/57/97 58/58/98 81/59/99 82/60/100
f 58/58/98 57/57/97 59/61/101 60/62/102
s 6
f 60/62/103 59/61/104 62/63/105 61/92/106
f 61/64/106 62/95/105 69/65/107 70/66/108
s 5
f 63/67/109 64/68/110 66/69/111 65/94/112
s 1
f 64/68/113 63/67/114 68/71/115 67/72/116
s 5
f 65/70/112 66/89/111 77/73/117 78/74/118
s 1
f 67/72/116 68/71/115 83/75/119 84/76/120
s 6
f 70/66/108 69/65/107 71/77/121 72/78/122
s 3
f 72/78/123 71/77/124 74/79/125 73/80/126
f 73/80/126 74/79/125 85/81/127 86/82/128
f 75/83/129 76/84/130 80/85/131 79/86/132
s 5
f 76/84/133 75/83/134 78/74/118 77/73/117
s 3
f 79/86/132 80/85/131 87/87/135 88/88/136
s 1
f 82/60/100 81/59/99 84/76/120 83/75/119
s 3
f 86/82/128 85/81/127 88/88/136 87/87/135
s 6
f 15/43/64 14/54/89 71/77/121 69/65/107
s 3
f 14/54/88 13/36/55 74/79/125 71/77/124
s 5
f 78/74/118 75/83/134 17/55/93 16/46/67
s 3
f 75/83/129 79/86/132 18/37/56 17/55/91
s 6
f 3/44/65 15/43/64 69/65/107 62/95/105
s 5
f 65/70/112 78/74/118 16/46/67 6/93/66
s 6
f 61/64/106 70/66/108 24/49/73 12/91/72
s 5
f 9/47/71 19/34/52 77/73/117 66/89/111
s 1
f 1/39/58 2/50/78 59/61/101 57/57/97
s 6
f 2/50/76 3/96/65 62/63/105 59/61/104
s 1
f 58/58/98 60/62/102 11/53/87 10/42/61
s 6
f 60/62/103 61/92/106 12/48/72 11/53/86
s 1
f 68/71/115 63/67/114 5/51/81 4/40/59
s 5
f 63/67/109 65/94/112 6/45/66 5/51/80
f 66/69/111 64/68/110 8/52/84 9/90/71
s 1
f 64/68/113 67/72/116 7/41/60 8/52/82
s 3
f 80/85/131 76/84/130 20/33/54 21/35/53
s 5
f 76/84/133 77/73/117 19/34/52 20/33/51
s 6
f 70/66/108 72/78/122 23/56/96 24/49/73
s 3
f 72/78/123 73/80/126 22/38/57 23/56/94
s 1
f 82/60/100 83/75/119 26/2/2 25/1/1
f 84/76/120 81/59/99 28/6/6 27/5/5
s 3
f 86/82/128 87/87/135 31/14/14 32/13/13
f 88/88/136 85/81/127 29/10/10 30/9/9
f 13/36/55 29/10/10 85/81/127 74/79/125
f 30/9/9 18/37/56 79/86/132 88/88/136
f 86/82/128 32/13/13 22/38/57 73/80/126
f 80/85/131 21/35/53 31/14/14 87/87/135
s 1
f 1/39/58 57/57/97 82/60/100 25/1/1
f 26/2/2 83/75/119 68/71/115 4/40/59
f 81/59/99 58/58/98 10/42/61 28/6/6
f 67/72/116 84/76/120 27/5/5 7/41/60
