# This file uses centimeters as units for non-parametric coordinates.

mtllib road.mtl
g default
v 3810.165894 -556.989395 152.052692
v 9480.301758 -556.989395 152.052692
v 3810.165894 -233.493073 152.052692
v 9480.301758 -233.493073 152.052692
v 3810.165894 -233.493073 -171.443596
v 9480.301758 -233.493073 -171.443596
v 3810.165894 -556.989395 -171.443596
v 9480.301758 -556.989395 -171.443596
vt 0.384708 0.023204
vt 0.218006 0.976796
vt 0.328559 0.023204
vt 0.163476 0.023204
vt 0.274154 0.023204
vt 0.109071 0.023204
vt 0.274154 0.077609
vt 0.272411 0.023204
vt 0.054666 0.976796
vt 0.272411 0.976796
vt 0.217881 0.976796
vt 0.328559 0.077609
vt 0.054666 0.023204
vt 0.330303 0.023204
vt 0.217881 0.023204
vt 0.218006 0.023204
vt 0.163476 0.976796
vt 0.109071 0.976796
vt 0.384708 0.077609
vt 0.330303 0.077609
vn 0.000000 0.000000 1.000000
vn 0.000000 0.000000 1.000000
vn 0.000000 0.000000 1.000000
vn 0.000000 0.000000 1.000000
vn 0.000000 1.000000 0.000000
vn 0.000000 1.000000 0.000000
vn 0.000000 1.000000 0.000000
vn 0.000000 1.000000 0.000000
vn 0.000000 0.000000 -1.000000
vn 0.000000 0.000000 -1.000000
vn 0.000000 0.000000 -1.000000
vn 0.000000 0.000000 -1.000000
vn 0.000000 -1.000000 0.000000
vn 0.000000 -1.000000 0.000000
vn 0.000000 -1.000000 0.000000
vn 0.000000 -1.000000 0.000000
vn 1.000000 0.000000 0.000000
vn 1.000000 0.000000 0.000000
vn 1.000000 0.000000 0.000000
vn 1.000000 0.000000 0.000000
vn -1.000000 0.000000 0.000000
vn -1.000000 0.000000 0.000000
vn -1.000000 0.000000 0.000000
vn -1.000000 0.000000 0.000000
s off
g pCube51 group1
usemtl initialShadingGroup
f 1/15/1 2/11/2 4/17/3 3/4/4
f 3/4/5 4/17/6 6/18/7 5/6/8
f 5/6/9 6/18/10 8/9/11 7/13/12
f 7/8/13 8/10/14 2/2/15 1/16/16
f 2/12/17 8/7/18 6/5/19 4/3/20
f 7/14/21 1/1/22 3/19/23 5/20/24
